<svg width="100" height="100" viewBox="0 0 100 100" fill="none" xmlns="http://www.w3.org/2000/svg">
<path fill-rule="evenodd" clip-rule="evenodd" d="M64.4565 24.5C64.4565 23.1193 65.5758 22 66.9565 22H71.1864C76.5343 22 80.8695 26.3353 80.8695 31.6831V32.5343C80.8695 37.8821 76.5343 42.2174 71.1864 42.2174H46.413C45.0323 42.2174 43.913 41.0981 43.913 39.7174C43.913 38.3367 45.0323 37.2174 46.413 37.2174H71.1864C73.7728 37.2174 75.8695 35.1207 75.8695 32.5343V31.6831C75.8695 29.0967 73.7728 27 71.1864 27H66.9565C65.5758 27 64.4565 25.8807 64.4565 24.5ZM67.8804 74.9348C67.8804 76.3155 68.9997 77.4348 70.3804 77.4348H74.6103C79.9582 77.4348 84.2934 73.0995 84.2934 67.7517V66.9005C84.2934 61.5527 79.9582 57.2174 74.6103 57.2174H35C33.6193 57.2174 32.5 58.3367 32.5 59.7174C32.5 61.0981 33.6193 62.2174 35 62.2174H74.6103C77.1967 62.2174 79.2934 64.3141 79.2934 66.9005V67.7517C79.2934 70.3381 77.1967 72.4348 74.6103 72.4348H70.3804C68.9997 72.4348 67.8804 73.5541 67.8804 74.9348ZM25.8696 62.2174C27.2503 62.2174 28.3696 61.0981 28.3696 59.7174C28.3696 58.3367 27.2503 57.2174 25.8696 57.2174H17.5C16.1193 57.2174 15 58.3367 15 59.7174C15 61.0981 16.1193 62.2174 17.5 62.2174H25.8696ZM84.6739 49.7174C84.6739 51.0981 83.5546 52.2174 82.1739 52.2174H69.2391C67.8584 52.2174 66.7391 51.0981 66.7391 49.7174C66.7391 48.3367 67.8584 47.2174 69.2391 47.2174H82.1739C83.5546 47.2174 84.6739 48.3367 84.6739 49.7174ZM59.3478 52.2174C60.7285 52.2174 61.8478 51.0981 61.8478 49.7174C61.8478 48.3367 60.7285 47.2174 59.3478 47.2174L17.5 47.2174C16.1193 47.2174 15 48.3367 15 49.7174C15 51.0981 16.1193 52.2174 17.5 52.2174L59.3478 52.2174Z" fill="url(#paint0_linear_19_1275)"/>
<defs>
<linearGradient id="paint0_linear_19_1275" x1="24.9462" y1="66.2158" x2="78.261" y2="9.65733" gradientUnits="userSpaceOnUse">
<stop stop-color="#68717E"/>
<stop offset="1" stop-color="#DAE3EC"/>
</linearGradient>
</defs>
</svg>
