<svg width="129" height="111" viewBox="0 0 129 111" fill="none" xmlns="http://www.w3.org/2000/svg">
<path d="M106.323 41.1678C103.816 41.3129 101.305 40.9447 98.9458 40.0858C96.5862 39.2269 94.4271 37.8954 92.6008 36.1729C90.7744 34.4504 89.3195 32.3733 88.325 30.0689C87.3305 27.7645 86.8175 25.2815 86.8175 22.7719C86.8175 20.2624 87.3305 17.7793 88.325 15.4749C89.3195 13.1705 90.7744 11.0934 92.6008 9.37091C94.4271 7.64845 96.5862 6.31694 98.9458 5.45802C101.305 4.59911 103.816 4.23091 106.323 4.37598C107.906 4.36414 109.483 4.57154 111.01 4.99226C106.438 1.70358 100.936 -0.044696 95.3033 0.000868545C89.6703 0.0464331 84.1981 1.88346 79.6799 5.24567C75.1618 8.60788 71.8325 13.3206 70.1745 18.7007C68.5166 24.0808 68.6162 29.8487 70.4589 35.1684C72.3015 40.4882 75.7916 45.0833 80.4231 48.2877C85.0547 51.4922 90.587 53.1394 96.2183 52.9908C101.85 52.8421 107.287 50.9052 111.743 47.4608C116.199 44.0165 119.441 39.2436 121 33.8341C119.296 36.1165 117.081 37.9686 114.532 39.242C111.984 40.5155 109.172 41.175 106.323 41.1678Z" fill="url(#paint0_linear_19_1255)"/>
<g filter="url(#filter0_f_19_1255)">
<ellipse cx="53.5" cy="79.5" rx="31.5" ry="9.5" fill="#949494" fill-opacity="0.7"/>
</g>
<g filter="url(#filter1_bi_19_1255)">
<path fill-rule="evenodd" clip-rule="evenodd" d="M77 42C77 42.7882 76.9696 43.5693 76.9099 44.3422C80.1949 41.6296 84.4071 40 89 40C99.4934 40 108 48.5066 108 59C108 69.158 100.029 77.4541 90 77.9741V78H89H19H17V77.896C7.44667 76.8966 0 68.8179 0 59C0 49.1618 7.47752 41.07 17.0593 40.0979C18.0405 24.4156 31.0704 12 47 12C63.5685 12 77 25.4315 77 42Z" fill="url(#paint1_linear_19_1255)"/>
</g>
<path d="M121.5 30C121.5 27.6131 120.71 25.3239 119.303 23.636C117.897 21.9482 115.989 21 114 21C115.989 21 117.897 20.0518 119.303 18.364C120.71 16.6761 121.5 14.3869 121.5 12C121.5 13.1819 121.694 14.3522 122.071 15.4441C122.448 16.5361 123 17.5282 123.697 18.364C124.393 19.1997 125.22 19.8626 126.13 20.3149C127.04 20.7672 128.015 21 129 21C128.015 21 127.04 21.2328 126.13 21.6851C125.22 22.1374 124.393 22.8003 123.697 23.636C123 24.4718 122.448 25.4639 122.071 26.5559C121.694 27.6478 121.5 28.8181 121.5 30Z" fill="url(#paint2_linear_19_1255)"/>
<path d="M53.5 21C53.5 18.6131 52.7098 16.3239 51.3033 14.636C49.8968 12.9482 47.9891 12 46 12C47.9891 12 49.8968 11.0518 51.3033 9.36397C52.7098 7.67614 53.5 5.38695 53.5 3C53.5 4.1819 53.694 5.35222 54.0709 6.44415C54.4478 7.53608 55.0003 8.52824 55.6967 9.36397C56.3931 10.1997 57.2199 10.8626 58.1299 11.3149C59.0398 11.7672 60.0151 12 61 12C60.0151 12 59.0398 12.2328 58.1299 12.6851C57.2199 13.1374 56.3931 13.8003 55.6967 14.636C55.0003 15.4718 54.4478 16.4639 54.0709 17.5559C53.694 18.6478 53.5 19.8181 53.5 21Z" fill="url(#paint3_linear_19_1255)"/>
<defs>
<filter id="filter0_f_19_1255" x="0" y="48" width="107" height="63" filterUnits="userSpaceOnUse" color-interpolation-filters="sRGB">
<feFlood flood-opacity="0" result="BackgroundImageFix"/>
<feBlend mode="normal" in="SourceGraphic" in2="BackgroundImageFix" result="shape"/>
<feGaussianBlur stdDeviation="11" result="effect1_foregroundBlur_19_1255"/>
</filter>
<filter id="filter1_bi_19_1255" x="-7" y="5" width="122" height="80" filterUnits="userSpaceOnUse" color-interpolation-filters="sRGB">
<feFlood flood-opacity="0" result="BackgroundImageFix"/>
<feGaussianBlur in="BackgroundImageFix" stdDeviation="3.5"/>
<feComposite in2="SourceAlpha" operator="in" result="effect1_backgroundBlur_19_1255"/>
<feBlend mode="normal" in="SourceGraphic" in2="effect1_backgroundBlur_19_1255" result="shape"/>
<feColorMatrix in="SourceAlpha" type="matrix" values="0 0 0 0 0 0 0 0 0 0 0 0 0 0 0 0 0 0 127 0" result="hardAlpha"/>
<feOffset dy="2"/>
<feGaussianBlur stdDeviation="4"/>
<feComposite in2="hardAlpha" operator="arithmetic" k2="-1" k3="1"/>
<feColorMatrix type="matrix" values="0 0 0 0 1 0 0 0 0 1 0 0 0 0 1 0 0 0 0.25 0"/>
<feBlend mode="normal" in2="shape" result="effect2_innerShadow_19_1255"/>
</filter>
<linearGradient id="paint0_linear_19_1255" x1="95" y1="0" x2="95" y2="53" gradientUnits="userSpaceOnUse">
<stop stop-color="#FDC500"/>
<stop offset="1" stop-color="#FD8900"/>
</linearGradient>
<linearGradient id="paint1_linear_19_1255" x1="56" y1="101.5" x2="96.5" y2="12" gradientUnits="userSpaceOnUse">
<stop stop-color="#DFDFDF"/>
<stop offset="1" stop-color="#92AABB" stop-opacity="0"/>
</linearGradient>
<linearGradient id="paint2_linear_19_1255" x1="121.5" y1="12" x2="121.5" y2="30" gradientUnits="userSpaceOnUse">
<stop stop-color="#FDC500"/>
<stop offset="1" stop-color="#FD8900"/>
</linearGradient>
<linearGradient id="paint3_linear_19_1255" x1="53.5" y1="3" x2="53.5" y2="21" gradientUnits="userSpaceOnUse">
<stop stop-color="#FDC500"/>
<stop offset="1" stop-color="#FD8900"/>
</linearGradient>
</defs>
</svg>
