<svg width="108" height="103" viewBox="0 0 108 103" fill="none" xmlns="http://www.w3.org/2000/svg">
<g filter="url(#filter0_f_19_1489)">
<ellipse cx="53.5" cy="67.5" rx="31.5" ry="9.5" fill="#949494" fill-opacity="0.7"/>
</g>
<path fill-rule="evenodd" clip-rule="evenodd" d="M41.8166 55.8158C41.8166 54.2607 40.556 53 39.0008 53C37.4457 53 36.185 54.2607 36.185 55.8158V59.2029L33.79 56.8079C32.6903 55.7082 30.9074 55.7082 29.8078 56.8079C28.7082 57.9075 28.7082 59.6904 29.8078 60.79L32.203 63.1852H28.8158C27.2607 63.1852 26 64.4459 26 66.001C26 67.5561 27.2607 68.8168 28.8158 68.8168H32.2028L29.8077 71.2119C28.7081 72.3116 28.7081 74.0944 29.8077 75.1941C30.9074 76.2937 32.6902 76.2937 33.7899 75.1941L36.185 72.7989V76.1862C36.185 77.7413 37.4457 79.002 39.0008 79.002C40.556 79.002 41.8166 77.7413 41.8166 76.1862V72.7989L44.2118 75.1941C45.3115 76.2937 47.0944 76.2937 48.194 75.1941C49.2936 74.0944 49.2936 72.3116 48.194 71.2119L45.7989 68.8168H49.1862C50.7413 68.8168 52.002 67.5561 52.002 66.001C52.002 64.4459 50.7413 63.1852 49.1862 63.1852H45.7988L48.1939 60.79C49.2936 59.6904 49.2936 57.9075 48.1939 56.8079C47.0943 55.7082 45.3114 55.7082 44.2118 56.8079L41.8166 59.203V55.8158Z" fill="url(#paint0_linear_19_1489)"/>
<path fill-rule="evenodd" clip-rule="evenodd" d="M76.2649 50.2391C76.2649 48.4502 74.8147 47 73.0258 47C71.2369 47 69.7868 48.4502 69.7868 50.2391V54.1789L67.0009 51.3931C65.736 50.1281 63.6851 50.1281 62.4202 51.3931C61.1553 52.658 61.1553 54.7089 62.4202 55.9738L65.2063 58.7599H61.2662C59.4773 58.7599 58.0271 60.2101 58.0271 61.999C58.0271 63.7879 59.4773 65.238 61.2662 65.238H65.206L62.4199 68.0241C61.155 69.2891 61.155 71.3399 62.4199 72.6049C63.6849 73.8698 65.7357 73.8698 67.0006 72.6049L69.7868 69.8187V73.7589C69.7868 75.5478 71.2369 76.998 73.0258 76.998C74.8147 76.998 76.2649 75.5478 76.2649 73.7589V69.8185L79.0513 72.6049C80.3162 73.8698 82.3671 73.8698 83.632 72.6049C84.8969 71.3399 84.8969 69.2891 83.632 68.0241L80.8459 65.238H84.786C86.5749 65.238 88.0251 63.7879 88.0251 61.999C88.0251 60.2101 86.5749 58.7599 84.786 58.7599H80.8456L83.6317 55.9738C84.8966 54.7089 84.8966 52.658 83.6317 51.3931C82.3668 50.1281 80.3159 50.1281 79.051 51.3931L76.2649 54.1791V50.2391Z" fill="url(#paint1_linear_19_1489)"/>
<path fill-rule="evenodd" clip-rule="evenodd" d="M63.3741 83.3753C63.3741 82.0634 62.3106 81 60.9988 81C59.687 81 58.6235 82.0634 58.6235 83.3753V86.2644L56.5806 84.2215C55.653 83.2939 54.1491 83.2939 53.2215 84.2215C52.2939 85.1491 52.2939 86.653 53.2215 87.5806L55.2646 89.6237H52.3753C51.0634 89.6237 50 90.6872 50 91.999C50 93.3108 51.0634 94.3742 52.3752 94.3742H55.2644L53.2213 96.4173C52.2937 97.3449 52.2937 98.8488 53.2213 99.7764C54.1489 100.704 55.6528 100.704 56.5804 99.7764L58.6235 97.7333V100.623C58.6235 101.935 59.687 102.998 60.9988 102.998C62.3106 102.998 63.3741 101.935 63.3741 100.623V97.7331L65.4173 99.7764C66.3449 100.704 67.8489 100.704 68.7765 99.7764C69.7041 98.8488 69.7041 97.3449 68.7765 96.4173L66.7334 94.3742H69.6227C70.9346 94.3742 71.998 93.3108 71.998 91.999C71.998 90.6872 70.9346 89.6237 69.6227 89.6237H66.7332L68.7763 87.5806C69.7039 86.653 69.7039 85.1491 68.7763 84.2215C67.8487 83.2939 66.3447 83.2939 65.4171 84.2215L63.3741 86.2646V83.3753Z" fill="url(#paint2_linear_19_1489)"/>
<g filter="url(#filter1_bi_19_1489)">
<path fill-rule="evenodd" clip-rule="evenodd" d="M77 30C77 30.7882 76.9696 31.5693 76.9099 32.3422C80.1949 29.6296 84.4071 28 89 28C99.4934 28 108 36.5066 108 47C108 57.158 100.029 65.4541 90 65.9741V66H89H19H17V65.896C7.44667 64.8966 0 56.8179 0 47C0 37.1618 7.47752 29.07 17.0593 28.0979C18.0405 12.4156 31.0704 0 47 0C63.5685 0 77 13.4315 77 30Z" fill="url(#paint3_linear_19_1489)"/>
</g>
<path fill-rule="evenodd" clip-rule="evenodd" d="M52.0021 66H26.0001C26.0006 64.4453 27.2611 63.1852 28.8159 63.1852H32.2031L29.8079 60.79C28.7083 59.6904 28.7083 57.9075 29.8079 56.8079C30.9075 55.7082 32.6904 55.7082 33.7901 56.8079L36.1851 59.2029V55.8158C36.1851 54.2607 37.4458 53 39.0009 53C40.5561 53 41.8167 54.2607 41.8167 55.8158V59.203L44.2119 56.8079C45.3115 55.7082 47.0944 55.7082 48.194 56.8079C49.2937 57.9075 49.2937 59.6904 48.194 60.79L45.7989 63.1852H49.1863C50.7411 63.1852 52.0016 64.4453 52.0021 66Z" fill="#E0E0E0"/>
<defs>
<filter id="filter0_f_19_1489" x="0" y="36" width="107" height="63" filterUnits="userSpaceOnUse" color-interpolation-filters="sRGB">
<feFlood flood-opacity="0" result="BackgroundImageFix"/>
<feBlend mode="normal" in="SourceGraphic" in2="BackgroundImageFix" result="shape"/>
<feGaussianBlur stdDeviation="11" result="effect1_foregroundBlur_19_1489"/>
</filter>
<filter id="filter1_bi_19_1489" x="-7" y="-7" width="122" height="80" filterUnits="userSpaceOnUse" color-interpolation-filters="sRGB">
<feFlood flood-opacity="0" result="BackgroundImageFix"/>
<feGaussianBlur in="BackgroundImageFix" stdDeviation="3.5"/>
<feComposite in2="SourceAlpha" operator="in" result="effect1_backgroundBlur_19_1489"/>
<feBlend mode="normal" in="SourceGraphic" in2="effect1_backgroundBlur_19_1489" result="shape"/>
<feColorMatrix in="SourceAlpha" type="matrix" values="0 0 0 0 0 0 0 0 0 0 0 0 0 0 0 0 0 0 127 0" result="hardAlpha"/>
<feOffset dy="2"/>
<feGaussianBlur stdDeviation="4"/>
<feComposite in2="hardAlpha" operator="arithmetic" k2="-1" k3="1"/>
<feColorMatrix type="matrix" values="0 0 0 0 1 0 0 0 0 1 0 0 0 0 1 0 0 0 0.25 0"/>
<feBlend mode="normal" in2="shape" result="effect2_innerShadow_19_1489"/>
</filter>
<linearGradient id="paint0_linear_19_1489" x1="29.7119" y1="73.7397" x2="54.4073" y2="52.8958" gradientUnits="userSpaceOnUse">
<stop stop-color="#68717E"/>
<stop offset="1" stop-color="#DAE3EC"/>
</linearGradient>
<linearGradient id="paint1_linear_19_1489" x1="62.3094" y1="70.927" x2="90.8" y2="46.8798" gradientUnits="userSpaceOnUse">
<stop stop-color="#68717E"/>
<stop offset="1" stop-color="#DAE3EC"/>
</linearGradient>
<linearGradient id="paint2_linear_19_1489" x1="53.1403" y1="98.546" x2="74.0329" y2="80.9119" gradientUnits="userSpaceOnUse">
<stop stop-color="#68717E"/>
<stop offset="1" stop-color="#DAE3EC"/>
</linearGradient>
<linearGradient id="paint3_linear_19_1489" x1="56" y1="89.5" x2="96.5" y2="1.95655e-07" gradientUnits="userSpaceOnUse">
<stop stop-color="#DFDFDF"/>
<stop offset="1" stop-color="#92AABB" stop-opacity="0"/>
</linearGradient>
</defs>
</svg>
