<svg width="108" height="99" viewBox="0 0 108 99" fill="none" xmlns="http://www.w3.org/2000/svg">
<g filter="url(#filter0_f_19_1427)">
<ellipse cx="53.5" cy="67.5" rx="31.5" ry="9.5" fill="#949494" fill-opacity="0.7"/>
</g>
<g filter="url(#filter1_bi_19_1427)">
<path fill-rule="evenodd" clip-rule="evenodd" d="M77 30C77 30.7882 76.9696 31.5693 76.9099 32.3422C80.1949 29.6296 84.4071 28 89 28C99.4934 28 108 36.5066 108 47C108 57.158 100.029 65.4541 90 65.9741V66H89H19H17V65.896C7.44667 64.8966 0 56.8179 0 47C0 37.1618 7.47752 29.07 17.0593 28.0979C18.0405 12.4156 31.0704 0 47 0C63.5685 0 77 13.4315 77 30Z" fill="url(#paint0_linear_19_1427)"/>
</g>
<path d="M68.6829 35.6434L60.6353 44.7741C59.7295 45.7375 59.085 46.8986 58.7551 48.1616C58.4253 49.4247 58.4195 50.7532 58.7383 52.0373C59.0012 53.056 59.5491 53.996 60.3233 54.7565C61.0975 55.517 62.0689 56.0695 63.1333 56.3547C64.1978 56.6399 65.3152 56.6472 66.366 56.3756C67.4167 56.1041 68.3612 55.564 69.0983 54.8132C70.0128 53.8599 70.6731 52.7099 71.0264 51.4551C71.3797 50.2004 71.4161 48.8757 71.1328 47.587L68.6829 35.6434Z" fill="url(#paint1_linear_19_1427)"/>
<path d="M42.7303 31.3669L36.5944 36.9788C35.9085 37.5667 35.3856 38.3082 35.0689 39.1419C34.7523 39.9756 34.6509 40.8775 34.7733 41.7731C34.8772 42.4844 35.1804 43.163 35.6505 43.7364C36.1206 44.3098 36.7399 44.7563 37.442 45.0281C38.1441 45.2999 38.9026 45.3867 39.6362 45.2793C40.3699 45.1719 41.051 44.8743 41.6067 44.4184C42.2978 43.8379 42.8307 43.1052 43.1627 42.2788C43.4946 41.4524 43.6165 40.5553 43.5186 39.6592L42.7303 31.3669Z" fill="url(#paint2_linear_19_1427)"/>
<path d="M47.8078 54.9058L38.3151 65.9182C37.2652 67.1104 36.5157 68.5274 36.1254 70.0584C35.7351 71.5894 35.7145 73.1928 36.0653 74.7431C36.3547 75.9661 36.9806 77.0931 37.875 78.0021C38.7695 78.9112 39.8983 79.5675 41.1393 79.9C42.3803 80.2326 43.6861 80.2286 44.9152 79.8886C46.1443 79.5485 47.2499 78.8854 48.1121 77.971C49.191 76.8038 49.9748 75.405 50.4023 73.8839C50.8298 72.3629 50.8893 70.7609 50.5761 69.2035L47.8078 54.9058Z" fill="url(#paint3_linear_19_1427)"/>
<path fill-rule="evenodd" clip-rule="evenodd" d="M49.9557 66H38.2437C38.2673 65.9726 38.2911 65.9453 38.315 65.9182L47.8077 54.9058L49.9557 66ZM36.5944 36.9788L42.7303 31.3669L43.5185 39.6592C43.6164 40.5554 43.4946 41.4525 43.1626 42.2789C42.8306 43.1053 42.2978 43.838 41.6067 44.4185C41.051 44.8744 40.3698 45.172 39.6362 45.2794C38.9025 45.3867 38.144 45.2999 37.4419 45.0281C36.7398 44.7563 36.1206 44.3098 35.6504 43.7365C35.1803 43.1631 34.8771 42.4844 34.7732 41.7732C34.6508 40.8776 34.7522 39.9756 35.0689 39.1419C35.3855 38.3082 35.9085 37.5667 36.5944 36.9788ZM60.6353 44.7742L68.6829 35.6435L71.1328 47.587C71.4161 48.8757 71.3797 50.2004 71.0264 51.4552C70.6731 52.71 70.0128 53.86 69.0983 54.8133C68.3612 55.5641 67.4167 56.1041 66.366 56.3757C65.3152 56.6472 64.1978 56.64 63.1333 56.3548C62.0689 56.0696 61.0975 55.5171 60.3233 54.7566C59.5491 53.996 59.0012 53.0561 58.7383 52.0373C58.4195 50.7532 58.4253 49.4247 58.7551 48.1617C59.085 46.8987 59.7295 45.7375 60.6353 44.7742Z" fill="#E0E0E0"/>
<defs>
<filter id="filter0_f_19_1427" x="0" y="36" width="107" height="63" filterUnits="userSpaceOnUse" color-interpolation-filters="sRGB">
<feFlood flood-opacity="0" result="BackgroundImageFix"/>
<feBlend mode="normal" in="SourceGraphic" in2="BackgroundImageFix" result="shape"/>
<feGaussianBlur stdDeviation="11" result="effect1_foregroundBlur_19_1427"/>
</filter>
<filter id="filter1_bi_19_1427" x="-7" y="-7" width="122" height="80" filterUnits="userSpaceOnUse" color-interpolation-filters="sRGB">
<feFlood flood-opacity="0" result="BackgroundImageFix"/>
<feGaussianBlur in="BackgroundImageFix" stdDeviation="3.5"/>
<feComposite in2="SourceAlpha" operator="in" result="effect1_backgroundBlur_19_1427"/>
<feBlend mode="normal" in="SourceGraphic" in2="effect1_backgroundBlur_19_1427" result="shape"/>
<feColorMatrix in="SourceAlpha" type="matrix" values="0 0 0 0 0 0 0 0 0 0 0 0 0 0 0 0 0 0 127 0" result="hardAlpha"/>
<feOffset dy="2"/>
<feGaussianBlur stdDeviation="4"/>
<feComposite in2="hardAlpha" operator="arithmetic" k2="-1" k3="1"/>
<feColorMatrix type="matrix" values="0 0 0 0 1 0 0 0 0 1 0 0 0 0 1 0 0 0 0.25 0"/>
<feBlend mode="normal" in2="shape" result="effect2_innerShadow_19_1427"/>
</filter>
<linearGradient id="paint0_linear_19_1427" x1="56" y1="89.5" x2="96.5" y2="1.95655e-07" gradientUnits="userSpaceOnUse">
<stop stop-color="#DFDFDF"/>
<stop offset="1" stop-color="#92AABB" stop-opacity="0"/>
</linearGradient>
<linearGradient id="paint1_linear_19_1427" x1="59.8752" y1="50.9892" x2="77.9815" y2="47.2815" gradientUnits="userSpaceOnUse">
<stop stop-color="#68717E"/>
<stop offset="1" stop-color="#DAE3EC"/>
</linearGradient>
<linearGradient id="paint2_linear_19_1427" x1="35.6224" y1="41.1446" x2="48.193" y2="39.9539" gradientUnits="userSpaceOnUse">
<stop stop-color="#68717E"/>
<stop offset="1" stop-color="#DAE3EC"/>
</linearGradient>
<linearGradient id="paint3_linear_19_1427" x1="37.3934" y1="73.4764" x2="58.6673" y2="69.438" gradientUnits="userSpaceOnUse">
<stop stop-color="#68717E"/>
<stop offset="1" stop-color="#DAE3EC"/>
</linearGradient>
</defs>
</svg>
