<svg width="129" height="99" viewBox="0 0 129 99" fill="none" xmlns="http://www.w3.org/2000/svg">
<g filter="url(#filter0_f_19_1522)">
<ellipse cx="53.5" cy="67.5" rx="31.5" ry="9.5" fill="#949494" fill-opacity="0.7"/>
</g>
<g filter="url(#filter1_bi_19_1522)">
<path fill-rule="evenodd" clip-rule="evenodd" d="M77 30C77 30.7882 76.9696 31.5693 76.9099 32.3422C80.1949 29.6296 84.4071 28 89 28C99.4934 28 108 36.5066 108 47C108 57.158 100.029 65.4541 90 65.9741V66H89H19H17V65.896C7.44667 64.8966 0 56.8179 0 47C0 37.1618 7.47752 29.07 17.0593 28.0979C18.0405 12.4156 31.0704 0 47 0C63.5685 0 77 13.4315 77 30Z" fill="url(#paint0_linear_19_1522)"/>
</g>
<path fill-rule="evenodd" clip-rule="evenodd" d="M125.432 47.9113H113.072C112.494 47.8165 111.968 47.5191 111.588 47.0723C111.208 46.6254 111 46.0582 111 45.4719C111 44.8856 111.208 44.3184 111.588 43.8715C111.968 43.4247 112.494 43.1273 113.072 43.0325H125.432C125.786 42.9746 126.148 42.9942 126.493 43.0901C126.838 43.1861 127.159 43.3559 127.432 43.588C127.705 43.82 127.924 44.1087 128.075 44.434C128.225 44.7593 128.303 45.1135 128.303 45.4719C128.303 45.8303 128.225 46.1845 128.075 46.5098C127.924 46.8351 127.705 47.1238 127.432 47.3558C127.159 47.5879 126.838 47.7578 126.493 47.8537C126.148 47.9496 125.786 47.9693 125.432 47.9113ZM98.1033 47.9113H40.0134C39.6597 47.9693 39.2976 47.9496 38.9523 47.8537C38.6069 47.7578 38.2865 47.5879 38.0134 47.3559C37.7402 47.1238 37.5208 46.8351 37.3703 46.5098C37.2198 46.1845 37.1418 45.8303 37.1418 45.4719C37.1418 45.1135 37.2198 44.7593 37.3703 44.434C37.5208 44.1087 37.7402 43.82 38.0134 43.588C38.2865 43.3559 38.6069 43.1861 38.9523 43.0901C39.2976 42.9942 39.6597 42.9746 40.0134 43.0325H98.1033C98.457 42.9746 98.8191 42.9942 99.1645 43.0901C99.5099 43.1861 99.8302 43.3559 100.103 43.588C100.377 43.82 100.596 44.1087 100.746 44.434C100.897 44.7593 100.975 45.1135 100.975 45.4719C100.975 45.8303 100.897 46.1845 100.746 46.5098C100.596 46.8351 100.377 47.1238 100.103 47.3559C99.8302 47.5879 99.5099 47.7578 99.1645 47.8537C98.8191 47.9496 98.457 47.9693 98.1033 47.9113ZM29.8655 74.6139H120.806C121.461 74.6138 122.09 74.3534 122.554 73.8898C123.017 73.4262 123.278 72.7975 123.278 72.1419C123.278 71.4863 123.017 70.8576 122.554 70.394C122.09 69.9304 121.461 69.67 120.806 69.67H29.8655C29.2099 69.67 28.5811 69.9304 28.1175 70.394C27.654 70.8576 27.3936 71.4863 27.3936 72.1419C27.3936 72.7975 27.654 73.4262 28.1175 73.8898C28.5811 74.3534 29.2099 74.6138 29.8655 74.6139ZM81.6456 59.23H13.4078C13.0893 59.239 12.7723 59.1829 12.4762 59.0651C12.1802 58.9473 11.9112 58.7704 11.6859 58.5451C11.4606 58.3198 11.2836 58.0508 11.1659 57.7547C11.0481 57.4587 10.992 57.1416 11.0009 56.8231C10.9922 56.5016 11.0481 56.1816 11.1651 55.8821C11.2822 55.5825 11.4581 55.3095 11.6825 55.079C11.9068 54.8486 12.1751 54.6655 12.4715 54.5405C12.7678 54.4155 13.0862 54.3511 13.4078 54.3513H81.6456C82.2898 54.3682 82.902 54.6361 83.3515 55.0978C83.8011 55.5596 84.0526 56.1786 84.0524 56.8231C84.0524 57.4615 83.7988 58.0737 83.3475 58.5251C82.8961 58.9764 82.2839 59.23 81.6456 59.23ZM95.5661 59.23H115.537C115.855 59.239 116.172 59.1829 116.468 59.0651C116.764 58.9473 117.033 58.7704 117.258 58.5451C117.484 58.3198 117.661 58.0508 117.779 57.7547C117.896 57.4587 117.952 57.1416 117.943 56.8231C117.952 56.5016 117.896 56.1816 117.779 55.8821C117.662 55.5825 117.486 55.3095 117.262 55.079C117.038 54.8486 116.769 54.6655 116.473 54.5405C116.177 54.4155 115.858 54.3511 115.537 54.3513H95.5661C94.9106 54.3513 94.2818 54.6116 93.8182 55.0752C93.3547 55.5388 93.0942 56.1675 93.0942 56.8231C93.0941 57.1447 93.1585 57.4632 93.2835 57.7595C93.4085 58.0558 93.5916 58.3241 93.822 58.5485C94.0525 58.7728 94.3255 58.9488 94.6251 59.0658C94.9247 59.1829 95.2446 59.2387 95.5661 59.23Z" fill="url(#paint1_linear_19_1522)"/>
<path fill-rule="evenodd" clip-rule="evenodd" d="M106.526 54.3513C105.778 56.1317 104.767 57.7742 103.541 59.23H95.566C95.2445 59.2387 94.9245 59.1829 94.625 59.0658C94.3254 58.9488 94.0524 58.7728 93.8219 58.5485C93.5915 58.3241 93.4083 58.0558 93.2833 57.7595C93.1583 57.4632 93.094 57.1447 93.0941 56.8231C93.0941 56.1675 93.3545 55.5388 93.8181 55.0752C94.2817 54.6116 94.9104 54.3513 95.566 54.3513H106.526ZM40.0133 47.9113H98.1032C98.4569 47.9693 98.819 47.9496 99.1644 47.8537C99.5097 47.7578 99.8301 47.5879 100.103 47.3558C100.376 47.1238 100.596 46.8351 100.746 46.5098C100.897 46.1845 100.975 45.8303 100.975 45.4719C100.975 45.1135 100.897 44.7593 100.746 44.434C100.596 44.1087 100.376 43.82 100.103 43.588C99.8301 43.3559 99.5097 43.1861 99.1644 43.0901C98.819 42.9942 98.4569 42.9746 98.1032 43.0325H40.0133C39.6596 42.9746 39.2975 42.9942 38.9522 43.0901C38.6068 43.1861 38.2864 43.3559 38.0133 43.588C37.7401 43.82 37.5207 44.1087 37.3702 44.434C37.2197 44.7593 37.1417 45.1135 37.1417 45.4719C37.1417 45.8303 37.2197 46.1845 37.3702 46.5098C37.5207 46.8351 37.7401 47.1238 38.0133 47.3558C38.2864 47.5879 38.6068 47.7578 38.9522 47.8537C39.2975 47.9496 39.6596 47.9693 40.0133 47.9113ZM13.4077 59.23H81.6454C82.2838 59.23 82.896 58.9764 83.3473 58.5251C83.7987 58.0737 84.0523 57.4615 84.0523 56.8231C84.0525 56.1786 83.801 55.5596 83.3514 55.0978C82.9018 54.6361 82.2897 54.3682 81.6454 54.3513H13.4077C13.0861 54.3511 12.7677 54.4155 12.4713 54.5405C12.175 54.6655 11.9067 54.8486 11.6824 55.079C11.458 55.3095 11.2821 55.5825 11.165 55.8821C11.048 56.1816 10.9921 56.5016 11.0008 56.8231C10.9918 57.1416 11.048 57.4587 11.1657 57.7547C11.2835 58.0508 11.4605 58.3198 11.6858 58.5451C11.9111 58.7704 12.18 58.9473 12.4761 59.0651C12.7722 59.1829 13.0892 59.239 13.4077 59.23Z" fill="#E0E0E0"/>
<defs>
<filter id="filter0_f_19_1522" x="0" y="36" width="107" height="63" filterUnits="userSpaceOnUse" color-interpolation-filters="sRGB">
<feFlood flood-opacity="0" result="BackgroundImageFix"/>
<feBlend mode="normal" in="SourceGraphic" in2="BackgroundImageFix" result="shape"/>
<feGaussianBlur stdDeviation="11" result="effect1_foregroundBlur_19_1522"/>
</filter>
<filter id="filter1_bi_19_1522" x="-7" y="-7" width="122" height="80" filterUnits="userSpaceOnUse" color-interpolation-filters="sRGB">
<feFlood flood-opacity="0" result="BackgroundImageFix"/>
<feGaussianBlur in="BackgroundImageFix" stdDeviation="3.5"/>
<feComposite in2="SourceAlpha" operator="in" result="effect1_backgroundBlur_19_1522"/>
<feBlend mode="normal" in="SourceGraphic" in2="effect1_backgroundBlur_19_1522" result="shape"/>
<feColorMatrix in="SourceAlpha" type="matrix" values="0 0 0 0 0 0 0 0 0 0 0 0 0 0 0 0 0 0 127 0" result="hardAlpha"/>
<feOffset dy="2"/>
<feGaussianBlur stdDeviation="4"/>
<feComposite in2="hardAlpha" operator="arithmetic" k2="-1" k3="1"/>
<feColorMatrix type="matrix" values="0 0 0 0 1 0 0 0 0 1 0 0 0 0 1 0 0 0 0.25 0"/>
<feBlend mode="normal" in2="shape" result="effect2_innerShadow_19_1522"/>
</filter>
<linearGradient id="paint0_linear_19_1522" x1="56" y1="89.5" x2="96.5" y2="1.95655e-07" gradientUnits="userSpaceOnUse">
<stop stop-color="#DFDFDF"/>
<stop offset="1" stop-color="#92AABB" stop-opacity="0"/>
</linearGradient>
<linearGradient id="paint1_linear_19_1522" x1="27.7454" y1="68.2158" x2="45.3965" y2="12.936" gradientUnits="userSpaceOnUse">
<stop stop-color="#68717E"/>
<stop offset="1" stop-color="#DAE3EC"/>
</linearGradient>
</defs>
</svg>
